<?xml version="1.0" encoding="UTF-8" standalone="no"?>
<!-- Created with Inkscape (http://www.inkscape.org/) -->

<svg
   width="309.47696"
   height="122.84358"
   viewBox="0 0 309.47696 122.84358"
   version="1.1"
   id="svg1"
   xmlns="http://www.w3.org/2000/svg"
   xmlns:svg="http://www.w3.org/2000/svg">
  <defs
     id="defs1">
    <rect
       x="152.44333"
       y="85.74688"
       width="184.01471"
       height="45.746284"
       id="rect18" />
  </defs>
  <g
     id="layer1"
     transform="translate(-13.458017,-13.722563)">
    <g
       id="g3"
       transform="matrix(1.0749211,0,0,1.0347204,-11.335588,3.8372236)">
      <g
         id="g4">
        <g
           id="g18">
          <g
             id="g20"
             transform="translate(4.9725186)">
            <g
               id="g19">
              <g
                 id="g5">
                <path
                   style="fill:none;stroke:#6096b4;stroke-width:6.22778;stroke-linecap:round;stroke-linejoin:round;stroke-dasharray:none;stroke-opacity:1"
                   d="m 21.206883,18.761009 c 0,0 7.370408,-9.6116462 9.417952,-4.114493 2.047544,5.497153 -9.946109,27.668108 2.909684,29.877341 C 46.390312,46.73309 74.197394,15.006259 74.197394,15.006259 L 59.704006,66.531171"
                   id="path1" />
                <path
                   style="fill:none;stroke:#ff4500;stroke-width:6.22778;stroke-linecap:round;stroke-linejoin:round;stroke-dasharray:none;stroke-opacity:1"
                   d="M 85.604412,12.923503 C 85.07014,14.592075 61.355524,103.93169 61.355524,103.93169"
                   id="path2" />
                <path
                   style="fill:none;stroke:#f5c940;stroke-width:6.22778;stroke-linecap:round;stroke-linejoin:round;stroke-dasharray:none;stroke-opacity:1"
                   d="M 95.875344,12.667523 78.068246,79.781438"
                   id="path3" />
                <path
                   style="fill:none;stroke:#ff4500;stroke-width:6.22778;stroke-linecap:round;stroke-linejoin:round;stroke-dasharray:none;stroke-opacity:1"
                   d="m 48.636658,102.40165 -6.435115,22.75962"
                   id="path4" />
                <path
                   style="fill:#000000;stroke:#93bfcf;stroke-width:6.22778;stroke-linecap:round;stroke-linejoin:round;stroke-dasharray:none;stroke-opacity:1"
                   d="M 57.23888,73.126916 50.803765,95.886537"
                   id="path4-5" />
                <ellipse
                   style="fill:#4a534d;fill-opacity:1;stroke:none;stroke-width:3.83391;stroke-linecap:round;stroke-linejoin:round;stroke-dasharray:none;stroke-opacity:1"
                   id="path5"
                   cx="75.86116"
                   cy="88.629921"
                   rx="3.614217"
                   ry="4.1952419" />
              </g>
              <path
                 style="fill:none;fill-opacity:1;stroke:#000000;stroke-width:6.22778;stroke-linecap:round;stroke-linejoin:round;stroke-dasharray:none;stroke-dashoffset:0;stroke-opacity:1;paint-order:normal"
                 d="m 102.99614,52.000613 c 0,0 4.97814,-6.501077 7.96629,-5.348008 5.73983,2.214866 -4.48484,48.21146 -4.48484,48.21146 0,0 11.40391,-17.563601 17.31686,-17.185671 5.91293,0.377931 11.99355,18.332136 11.99355,18.332136 0,0 -1.1059,-40.55074 11.51446,-54.689554 2.91016,-3.260319 7.59779,-5.554966 11.98502,-5.413534 5.42568,0.174914 7.13439,4.285716 7.13439,4.285716"
                 id="path18" />
              <text
                 xml:space="preserve"
                 transform="matrix(0.93030084,0,0,0.96644466,-0.98069424,-18.259917)"
                 id="text18"
                 style="font-style:normal;font-variant:normal;font-weight:normal;font-stretch:normal;font-size:37.3333px;font-family:'Noto Kufi Arabic';-inkscape-font-specification:'Noto Kufi Arabic';white-space:pre;shape-inside:url(#rect18);display:inline;fill:#000000;fill-opacity:1;stroke:none;stroke-width:1.975;stroke-linecap:round;stroke-linejoin:round;stroke-dasharray:none;stroke-dashoffset:0;stroke-opacity:1;paint-order:normal"><tspan
                   x="152.44336"
                   y="119.71474"
                   id="tspan2"><tspan
                     style="stroke:#000000"
                     id="tspan1">ritely-Blog</tspan></tspan></text>
            </g>
          </g>
        </g>
      </g>
    </g>
  </g>
</svg>
